<?xml version="1.0" standalone="no"?>
<!DOCTYPE svg PUBLIC "-//W3C//DTD SVG 20010904//EN"
 "http://www.w3.org/TR/2001/REC-SVG-20010904/DTD/svg10.dtd">
<svg version="1.0" xmlns="http://www.w3.org/2000/svg"
 width="700.000000pt" height="700.000000pt" viewBox="0 0 700.000000 700.000000"
 preserveAspectRatio="xMidYMid meet">
<metadata>
Created by potrace 1.14, written by Peter Selinger 2001-2017
</metadata>
<g transform="translate(0.000000,700.000000) scale(0.100000,-0.100000)"
fill="#000000" stroke="none">
<path d="M2775 6989 c-16 -4 -47 -22 -68 -40 -118 -97 -105 -272 26 -353 47
-29 53 -30 184 -32 75 -1 139 -7 142 -12 6 -11 6 -450 0 -456 -2 -2 -22 -6
-44 -9 -314 -43 -713 -183 -1030 -362 -280 -158 -580 -403 -799 -655 -313
-360 -559 -840 -666 -1300 -29 -124 -26 -112 -50 -265 -36 -238 -42 -543 -14
-765 2 -19 6 -57 9 -85 23 -207 97 -488 191 -725 211 -532 572 -998 1039
-1340 62 -46 186 -130 190 -130 2 0 32 -18 67 -39 279 -169 674 -314 1018
-374 198 -35 287 -42 530 -42 231 0 289 5 520 40 322 49 721 195 1029 377 183
108 307 198 481 350 647 565 1029 1411 1031 2283 0 191 -13 340 -47 545 -32
193 -118 485 -194 655 -126 284 -256 504 -425 714 -41 52 -75 97 -75 100 0 3
35 41 78 83 l78 77 90 -91 c53 -55 106 -99 133 -110 180 -81 363 102 286 286
-19 46 -670 703 -723 730 -104 53 -239 9 -293 -96 -22 -44 -27 -92 -15 -156 8
-44 63 -113 164 -206 23 -21 42 -43 42 -47 0 -4 -34 -42 -77 -84 -76 -76 -76
-76 -99 -58 -330 264 -597 419 -932 542 -69 25 -269 87 -311 96 -95 21 -215
45 -253 50 -40 6 -48 11 -49 29 -3 103 -1 438 4 442 3 3 66 7 139 8 125 1 136
3 179 28 80 47 114 110 110 206 -2 78 -57 154 -134 186 -33 14 -124 15 -735
15 -383 0 -710 -5 -727 -10z m813 -2241 c24 -10 55 -32 70 -50 61 -72 57 -13
59 -868 2 -550 0 -797 -8 -826 -14 -54 -60 -109 -112 -136 l-42 -22 -795 -1
c-437 -1 -814 2 -837 7 -131 23 -208 171 -154 293 28 63 45 82 104 112 l49 24
679 1 679 0 0 57 c1 31 2 331 3 667 l2 611 35 52 c32 46 64 70 130 94 28 11
95 3 138 -15z"/>
</g>
</svg>
